# xmcd CD database file
#
# Track frame offsets:
#	150
#	25587
#	57202
#	84857
#	115740
#	138757
#
# Disc length: 2259 seconds
#
# Revision: 0
# Processed by: cddbd v1.5.2PL0 Copyright (c) Steve Scherf et al.
# Submitted via: CDex 1.70beta2
#
DISCID=3a08d106
DTITLE=Buddy De Franco - Cooking The Blues
DYEAR=1900
DGENRE=Jazz
TTITLE0=I Can't Get Straited
TTITLE1=Cooking Te Blues
TTITLE2=Stardust
TTITLE3=How About You
TTITLE4=Little Girl Blue
TTITLE5=Indian Summer
EXTD=
EXTT0=
EXTT1=
EXTT2=
EXTT3=
EXTT4=
EXTT5=
PLAYORDER=
